ply 
format ascii 1.0
element vertex 287
property float x
property float y
property float z
element face 570
property list uchar int vertex_index
end_header
-5.96536 -20.4852 17.6883
10.3544 -3.46074 3.10304
15.1529 -20.4852 17.6883
-3.48258 -36.9728 28.3184
9.33278 16.494 3.03829
-2.84577 26.9564 15.4396
-1.80811 32.1648 3.26134
8.61597 -44.6322 15.7715
11.0942 -45.7062 24.5673
2.0112 41.8997 6.91957
7.63943 -49.6191 14.671
7.63943 -51.0593 17.1433
9.25991 25.7744 29.6252
9.29431 -4.18024 8.86547
11.4878 -0.771919 7.49831
4.26563 -29.1609 18.8883
-6.24559 27.372 17.8692
15.7634 -3.36766 22.6887
10.7886 -44.026 21.6943
-3.45128 27.372 17.8692
18.4813 14.3871 17.4847
-1.13314 21.1397 20.6849
10.0254 -17.1427 36.0999
-1.45388 -52.231 0
-1.31851 35.2587 0
-2.27309 -43.0882 20.3473
-2.27878 -9.84658 15.9816
-1.90668 -45.7062 24.5673
2.35893 -51.6845 17.4949
4.26436 -43.1615 15.427
6.1313 -23.2038 16.4391
0.880622 -48.4075 14.3443
2.78597 38.199 6.89658
-5.59857 -41.3654 2.13773
-5.59857 -25.3276 12.9727
8.76186 24.7203 31.8921
7.04331 33.8121 23.2976
14.3255 25.7401 25.9857
8.24782 15.0152 0
9.30759 -5.93019 4.56216
12.2898 -13.2337 26.4657
11.0136 -4.24376 1.23568
-1.02914 -42.2153 2.9139
7.1738 50.2083 5.82698
-7.63605 31.4239 0
-7.63605 32.1648 3.26134
12.3401 -6.29878 11.8006
8.84318 20.2761 0
6.57591 50.0411 16.0603
6.57591 52.6449 15.8581
6.57591 50.8983 16.8449
-7.09939 11.421 24.431
6.36768 30.2536 30.7071
12.36 -38.0148 30.5538
2.93278 36.3357 10.337
-7.07057 26.6887 14.845
14.4253 -5.89939 4.56219
14.4253 -3.46074 3.10304
14.4253 -4.24376 1.23568
14.4253 -3.53084 10.476
14.4253 -8.45637 8.64126
14.4253 -8.24149 3.37504
14.4253 -6.29878 11.8006
14.4253 -1.38814 9.75473
14.4253 -5.51614 7.52303
14.4253 -0.771919 7.49831
-4.57665 -32.4649 17.4592
-2.01874 12.4796 34.4768
11.713 -28.7285 20.4345
15.059 -20.7587 27.268
0.332703 -44.6322 15.7715
12.5863 22.8121 32.3701
11.9639 -3.53084 10.476
-5.78326 29.3881 4.12662
-5.78326 28.0148 0
-6.81057 -51.3705 0
2.79049 51.977 5.3872
13.415 -13.6977 21.7551
13.0359 10.845 28.6453
-1.48728 -37.4616 25.7005
6.46231 48.9817 3.65551
0.0628897 -49.7838 0
11.9366 24.3058 12.4606
2.56547 42.7344 3.87586
2.68104 -47.3279 12.8677
2.68104 -45.9899 12.5933
-3.25358 37.688 2.57853
-4.76428 26.5427 12.6171
-4.76428 30.4393 12.9063
-7.82297 31.6587 15.49
9.01884 -36.5983 28.3477
0.717262 -47.0177 19.314
-6.22388 -49.8075 3.46218
-1.5537 -37.5397 28.3184
12.368 17.8376 5.16372
-3.62845 -45.4169 6.11467
-5.39426 32.2294 4.97736
3.02982 51.1796 14.3592
-4.25335 -12.6907 19.9469
1.24933 -38.6143 30.0188
4.63284 53.5707 13.3276
11.2685 21.0397 0
11.738 18.2899 11.2136
-1.10498 -26.8979 15.1628
-1.10498 -44.8479 5.16161
-1.10498 -29.231 17.0861
-4.82917 -25.5044 23.1587
7.25135 38.9468 10.9864
-0.954856 -4.29286 34.6475
-0.954856 -17.776 36.1701
-0.954856 -24.8831 34.5836
-0.954856 4.37233 34.5772
-0.954856 -14.212 35.0725
10.123 -36.602 23.0044
-0.786329 -43.1615 15.427
-4.96288 32.9317 18.4312
-3.75611 8.14168 28.6453
-7.12961 22.1381 14.0035
10.7882 -7.09674 5.46752
10.7882 -10.7946 3.53698
10.7882 -8.45637 8.64126
10.7882 -7.03503 7.41137
6.35277 51.977 5.3872
4.28193 -51.6517 16.2888
4.28193 -47.3279 12.8677
4.28193 -50.6547 15.2203
4.28193 -52.4667 17.3997
4.28193 -48.4075 14.3443
4.28193 -49.7024 14.4927
4.28193 -45.9899 12.5933
4.28193 -51.4497 16.3372
1.09631 28.1796 27.9432
10.2218 21.4056 11.3509
2.09635 45.8807 5.20659
9.66647 -8.75731 10.068
12.757 13.215 3.9791
12.757 11.292 0
11.3928 21.4947 3.25771
0.165078 -47.862 14.4931
1.0634 9.78076 18.0768
11.4583 -41.3354 27.8333
12.7181 10.769 18.8386
15.1259 21.4056 11.2527
-3.53061 10.769 18.8386
-0.245224 -49.265 16.5532
-2.27082 -41.3354 27.8333
13.4409 -12.6907 19.9469
-6.53624 -19.3641 26.623
-0.935451 -36.602 23.0044
-3.34129 -13.6977 21.7551
4.30606 -48.6984 24.8432
4.30606 -48.6652 23.2328
14.6098 15.0152 0
14.6098 16.494 3.03829
4.60245 38.199 6.89658
4.59376 -4.29286 34.7571
4.59376 49.1833 13.5798
4.59376 42.7344 3.87586
4.59376 -2.95967 16.083
4.59376 48.8685 15.2427
4.59376 -43.4586 29.5267
4.59376 50.5481 12.0113
4.59376 26.7273 27.4261
4.59376 21.6523 34.3352
4.59376 29.6504 24.5553
4.59376 48.9817 3.65551
4.59376 -17.776 35.3225
4.59376 25.7401 25.9857
4.59376 -24.8831 34.8888
4.59376 52.6449 15.8581
4.59376 32.6434 20.4743
4.59376 42.6733 8.37485
4.59376 51.977 5.3872
4.59376 49.5233 16.6574
4.59376 4.37233 35.0474
4.59376 36.612 21.3357
4.59376 39.9208 11.286
4.59376 49.4177 7.90107
4.59376 -14.212 34.6892
4.59376 12.2363 36.1103
9.97385 -43.1615 15.427
-2.38123 22.1381 12.2554
-6.98216 17.0905 17.4847
-1.15318 -13.7479 16.1262
8.48146 -49.265 16.5532
1.93617 38.9468 10.9864
7.16203 52.3305 12.2813
14.9645 21.2788 17.6131
6.44365 53.8288 9.03033
1.73049 -37.1912 17.7206
14.8416 -4.47821 32.4817
14.4776 -12.6907 19.9469
8.09121 28.1796 27.9432
7.93819 -38.6143 30.0188
10.6748 -37.4616 25.7005
10.1424 -4.29286 34.6475
10.1424 -17.776 36.1701
10.1424 -24.8831 34.5836
10.1424 4.37233 34.5772
10.1424 -14.212 35.0725
15.0142 -9.01027 0
14.4489 -5.10957 0
16.2869 11.9901 24.431
5.55519 -47.3279 12.8677
5.55519 -45.9899 12.5933
8.07116 -47.862 14.4931
15.1815 -13.721 26.5676
14.0167 -25.5044 23.1587
-6.38424 -52.231 0
11.5646 -5.10957 0
-5.77876 21.1397 20.6849
-5.65412 -4.47821 32.4817
1.7581 -24.3397 15.3413
9.47886 21.2788 17.6131
2.59633 53.8538 9.03033
6.1577 51.1796 14.3592
-3.10232 -13.2337 26.4657
-2.84579 31.6588 15.5883
11.9587 -1.38814 9.75473
8.74414 -9.01027 0
8.74414 -6.21784 2.95814
-4.71543 -13.721 26.5676
-2.4035 35.0112 4.12492
11.2063 12.4796 34.4768
-3.17244 -38.0148 30.5538
7.10652 45.8807 5.20659
2.00108 52.3305 12.2813
2.81984 30.2536 30.7071
12.9216 21.4947 3.25771
7.50788 -48.2668 23.1284
7.50788 -48.0768 24.6064
-7.45702 -29.0448 16.2288
7.51898 -47.0177 19.314
2.61161 50.0411 16.0603
2.61161 52.6449 15.8581
2.61161 50.8983 16.8449
6.62205 42.7344 3.87586
-3.67842 -51.5063 4.95266
7.35506 8.0656 18.1248
15.7238 -19.3641 26.623
10.7412 -37.5397 28.3184
2.72521 48.9817 3.65551
10.517 19.9959 3.58146
4.58845 36.3357 10.337
-4.78237 37.688 2.57853
-3.28875 23.017 25.9857
0.69473 -48.2668 23.1284
0.69473 -48.0768 24.6064
9.20754 -4.17161 7.44951
2.14421 33.8121 23.2976
-3.39874 22.8121 32.3701
-5.87144 -20.7587 27.268
8.34537 -13.7479 16.1262
6.25474 36.3357 10.337
7.35561 -48.4075 14.3443
-6.90857 35.2587 0
-6.90857 35.0112 4.44863
-6.90857 32.9317 18.4312
-1.41134 -43.0358 0
11.4663 -9.84658 15.6921
11.4606 -43.0882 20.3473
0.168681 -36.5983 28.3477
-0.837917 -17.1427 36.0999
2.01372 50.2083 5.82698
-1.75171 21.7881 17.5843
-6.17391 -45.653 4.73605
6.14072 -51.6845 17.4949
-6.62007 -43.0621 0
13.8823 21.0397 0
13.8823 24.3058 12.4606
13.8823 19.9959 3.90517
-1.60109 -44.026 21.6943
6.40155 38.199 6.89658
12.6701 -36.9728 28.3184
-0.723149 31.4239 0
0.59681 -49.6191 14.671
0.59681 -51.0593 17.1433
-0.0723944 25.7744 29.6252
-6.57591 -3.36766 22.6887
6.47212 -37.1912 17.7206
-3.70534 -54.1995 0
-6.23435 -24.3397 15.3413
7.17632 41.8997 6.91957
-2.52543 -28.7285 20.4345
10.865 -11.7076 0
-0.768661 -49.8074 3.46218
0.425661 24.7203 31.8921
3 222 73 6
3 222 96 73
3 93 3 79
3 257 86 244
3 257 115 86
3 244 24 255
3 244 86 24
3 86 217 222
3 86 115 217
3 180 29 279
3 274 222 6
3 274 24 222
3 74 44 274
3 129 29 204
3 24 44 255
3 24 274 44
3 257 256 89
3 257 244 256
3 256 88 89
3 256 96 88
3 244 255 256
3 255 45 256
3 255 44 45
3 73 256 45
3 73 96 256
3 45 74 73
3 45 44 74
3 74 6 73
3 74 274 6
3 96 217 88
3 96 222 217
3 233 173 235
3 233 159 173
3 283 66 105
3 283 106 66
3 66 0 231
3 66 106 0
3 109 221 147
3 109 262 221
3 262 216 221
3 262 112 216
3 158 139 238
3 210 55 117
3 210 16 55
3 241 157 83
3 212 0 183
3 143 158 26
3 25 148 114
3 226 156 97
3 226 161 156
3 97 235 234
3 97 233 235
3 97 159 233
3 97 156 159
3 117 182 210
3 211 278 216
3 54 243 170
3 104 103 105
3 104 42 103
3 241 165 157
3 112 211 216
3 112 108 211
3 104 66 95
3 104 105 66
3 108 116 211
3 108 111 116
3 116 143 278
3 76 172 165
3 165 241 76
3 214 172 76
3 89 16 257
3 89 55 16
3 93 145 224
3 234 169 100
3 216 0 221
3 216 149 0
3 149 98 0
3 168 109 110
3 168 166 109
3 109 166 262
3 166 112 262
3 166 178 112
3 143 26 278
3 149 278 98
3 224 261 3
3 178 108 112
3 178 155 108
3 155 111 108
3 155 174 111
3 149 216 278
3 98 278 26
3 252 30 212
3 93 224 3
3 169 234 235
3 245 21 210
3 245 167 21
3 277 245 250
3 103 34 212
3 131 164 162
3 131 162 277
3 158 183 26
3 88 5 87
3 88 217 5
3 16 115 257
3 16 19 115
3 217 19 5
3 217 115 19
3 25 70 91
3 25 114 70
3 227 249 131
3 277 167 245
3 221 0 147
3 251 0 106
3 251 147 0
3 33 231 34
3 33 265 231
3 148 106 283
3 148 283 189
3 212 15 283
3 189 283 15
3 67 51 116
3 51 182 143
3 116 51 143
3 160 193 168
3 197 90 69
3 197 193 90
3 90 207 69
3 90 113 207
3 250 182 51
3 250 210 182
3 250 245 210
3 162 167 277
3 163 227 286
3 17 190 40
3 131 170 164
3 131 249 170
3 19 210 21
3 19 16 210
3 117 181 182
3 246 247 27
3 114 84 70
3 91 28 246
3 91 276 28
3 281 34 231
3 179 111 174
3 179 67 111
3 116 111 67
3 197 239 196
3 197 69 239
3 196 206 22
3 196 239 206
3 22 40 199
3 22 206 40
3 190 17 78
3 199 190 195
3 199 40 190
3 195 78 198
3 195 190 78
3 78 17 141
3 40 206 77
3 77 191 146
3 168 196 166
3 168 197 196
3 166 196 22
3 166 199 178
3 166 22 199
3 141 17 259
3 77 146 17
3 146 191 259
3 178 195 155
3 178 199 195
3 155 198 174
3 155 195 198
3 77 17 40
3 191 60 62
3 191 2 60
3 102 238 132
3 102 141 238
3 242 135 94
3 242 4 135
3 187 82 213
3 187 269 82
3 37 213 167
3 37 187 213
3 269 137 82
3 269 228 137
3 60 30 120
3 60 2 30
3 228 101 137
3 228 268 101
3 82 238 213
3 82 132 238
3 137 132 82
3 137 242 132
3 5 21 264
3 5 19 21
3 242 101 47
3 242 137 101
3 38 242 47
3 38 4 242
3 136 38 152
3 268 47 101
3 47 152 38
3 47 268 152
3 206 239 2
3 69 2 239
3 69 207 2
3 2 68 30
3 2 207 68
3 207 113 68
3 113 279 68
3 30 68 15
3 68 279 15
3 223 78 202
3 202 141 20
3 78 141 202
3 71 202 20
3 71 187 37
3 71 20 187
3 187 20 269
3 269 20 142
3 269 270 228
3 269 142 270
3 270 102 94
3 270 142 102
3 141 158 238
3 143 139 158
3 228 270 268
3 268 153 152
3 268 270 153
3 135 270 94
3 135 153 270
3 153 136 152
3 153 135 136
3 179 198 223
3 179 174 198
3 78 223 198
3 163 223 71
3 163 179 223
3 163 71 35
3 12 35 71
3 52 36 175
3 175 36 107
3 171 107 282
3 175 107 176
3 171 282 225
3 171 43 177
3 171 225 43
3 177 186 161
3 177 43 186
3 186 43 188
3 188 43 122
3 253 36 170
3 36 253 107
3 35 192 52
3 35 12 192
3 202 71 223
3 89 87 55
3 89 88 87
3 43 225 80
3 80 122 43
3 80 225 236
3 236 282 272
3 236 225 282
3 107 272 282
3 107 253 272
3 176 107 171
3 52 175 227
3 52 227 163
3 163 67 179
3 163 250 67
3 163 286 250
3 277 250 286
3 227 175 249
3 175 185 249
3 171 9 185
3 175 176 185
3 171 133 9
3 171 263 133
3 171 177 263
3 177 226 263
3 177 161 226
3 226 214 263
3 214 76 263
3 235 173 50
3 54 170 249
3 249 185 54
3 139 181 264
3 0 98 26
3 141 259 158
3 181 5 264
3 181 87 5
3 253 170 243
3 55 181 117
3 55 87 181
3 186 156 161
3 186 215 156
3 215 50 48
3 215 49 50
3 215 159 156
3 215 48 159
3 48 50 173
3 48 173 159
3 182 181 143
3 286 131 277
3 286 227 131
3 80 236 157
3 148 189 114
3 80 157 165
3 122 165 172
3 165 122 80
3 188 122 172
3 279 189 15
3 214 188 172
3 49 100 169
3 30 15 212
3 50 169 235
3 169 50 49
3 12 71 37
3 192 162 164
3 192 12 162
3 20 102 142
3 20 141 102
3 158 259 183
3 281 231 0
3 0 212 281
3 91 138 144
3 91 70 138
3 52 192 36
3 136 4 38
3 136 135 4
3 94 132 242
3 94 102 132
3 62 64 59
3 62 60 64
3 46 59 72
3 46 62 59
3 63 64 65
3 59 218 72
3 59 63 218
3 65 56 57
3 65 64 56
3 57 61 58
3 57 56 61
3 58 200 201
3 58 61 200
3 60 121 64
3 60 120 121
3 64 118 56
3 64 121 118
3 56 119 61
3 56 118 119
3 61 284 200
3 61 119 284
3 259 62 46
3 259 191 62
3 146 259 17
3 59 64 63
3 129 84 85
3 129 124 84
3 114 189 29
3 218 65 14
3 218 63 65
3 14 57 1
3 14 65 57
3 1 58 41
3 1 57 58
3 58 209 41
3 58 201 209
3 284 220 219
3 284 119 220
3 118 248 39
3 118 121 248
3 118 220 119
3 118 39 220
3 220 209 219
3 220 41 209
3 1 220 39
3 1 41 220
3 14 39 248
3 14 1 39
3 218 248 13
3 218 14 248
3 279 29 189
3 72 218 13
3 46 13 134
3 46 72 13
3 13 121 120
3 13 248 121
3 212 34 281
3 252 46 134
3 252 259 46
3 134 13 120
3 134 30 252
3 134 120 30
3 12 37 167
3 12 167 162
3 200 284 219
3 200 209 201
3 200 219 209
3 163 35 52
3 77 206 2
3 192 170 36
3 192 164 170
3 27 91 246
3 27 271 91
3 91 271 25
3 91 144 276
3 183 0 26
3 51 67 250
3 252 212 183
3 263 241 133
3 241 263 76
3 241 83 133
3 83 9 133
3 83 32 9
3 185 32 54
3 185 9 32
3 176 171 185
3 278 211 116
3 252 183 259
3 104 237 285
3 104 95 237
3 104 81 42
3 104 285 81
3 285 280 23
3 285 237 280
3 285 23 81
3 42 81 258
3 103 33 34
3 103 42 33
3 42 258 33
3 237 265 92
3 237 95 265
3 280 92 208
3 280 237 92
3 92 267 75
3 92 265 267
3 92 75 208
3 231 95 66
3 231 265 95
3 267 265 33
3 105 212 283
3 105 103 212
3 215 186 100
3 186 188 100
3 226 100 214
3 100 97 234
3 215 100 49
3 97 100 226
3 188 214 100
3 148 25 271
3 139 143 181
3 28 130 123
3 264 21 139
3 154 236 272
3 154 157 236
3 160 168 99
3 110 261 99
3 110 251 261
3 261 106 148
3 261 251 106
3 154 54 32
3 154 243 54
3 272 243 154
3 272 253 243
3 157 32 83
3 157 154 32
3 222 24 86
3 167 213 21
3 139 21 213
3 139 213 238
3 99 224 145
3 33 258 267
3 258 81 267
3 208 23 280
3 23 75 81
3 23 208 75
3 81 75 267
3 191 77 2
3 110 147 251
3 110 109 147
3 8 18 140
3 140 113 194
3 140 18 113
3 261 79 3
3 240 273 53
3 240 53 140
3 113 18 260
3 113 260 180
3 113 180 279
3 229 8 230
3 8 232 18
3 8 229 232
3 232 266 11
3 232 229 266
3 232 11 184
3 232 205 7
3 232 184 205
3 232 260 18
3 260 7 180
3 260 232 7
3 70 84 138
3 180 7 203
3 160 140 193
3 151 247 246
3 151 150 247
3 184 10 205
3 10 184 11
3 266 123 130
3 126 229 151
3 126 266 229
3 151 230 150
3 151 229 230
3 230 140 160
3 230 8 140
3 230 160 150
3 275 276 144
3 193 140 53
3 53 273 90
3 90 273 194
3 79 261 148
3 240 140 194
3 254 124 203
3 254 127 124
3 193 53 90
3 240 194 273
3 247 145 27
3 247 160 145
3 123 266 126
3 11 266 130
3 127 84 124
3 127 31 84
3 194 113 90
3 275 127 128
3 275 31 127
3 205 254 203
3 247 150 160
3 99 261 224
3 125 276 275
3 125 130 276
3 144 138 275
3 160 99 145
3 125 275 128
3 28 123 126
3 28 276 130
3 138 84 31
3 205 203 7
3 93 79 145
3 126 246 28
3 126 151 246
3 114 85 84
3 205 10 254
3 180 203 204
3 10 127 254
3 10 128 127
3 138 31 275
3 10 125 128
3 125 11 130
3 125 10 11
3 129 203 124
3 129 204 203
3 180 204 29
3 114 29 85
3 85 29 129
3 27 145 271
3 145 148 271
3 145 79 148
3 168 193 197
3 99 168 110
